<svg width="117" height="52" viewBox="0 0 117 52" fill="none" xmlns="http://www.w3.org/2000/svg">
<path d="M24.2857 8.51764C25.8861 9.24169 27.1182 10.2702 27.983 11.6017C28.8468 12.9331 29.2796 14.5103 29.2796 16.3324C29.2796 18.1545 28.8468 19.7027 27.983 21.0457C27.1182 22.3896 25.8861 23.4173 24.2857 24.1297C22.6853 24.8431 20.7986 25.1989 18.6256 25.1989H13.6846V31.9627H8.0072V7.43115H18.6265C20.7995 7.43115 22.6861 7.79359 24.2865 8.51764H24.2857ZM22.2004 19.4694C23.0883 18.7337 23.5318 17.6878 23.5318 16.3332C23.5318 14.9786 23.0875 13.8979 22.2004 13.1615C21.3125 12.4258 20.0158 12.0576 18.3104 12.0576H13.6846V20.5732H18.3104C20.0158 20.5732 21.3125 20.205 22.2004 19.4694Z" fill="#F82C17"/>
<path d="M39.795 30.7256C37.7503 29.6275 36.1499 28.1149 34.9939 26.1877C33.8371 24.2605 33.2595 22.0933 33.2595 19.687C33.2595 17.2806 33.8379 15.1135 34.9939 13.1863C36.1507 11.2591 37.7503 9.74642 39.795 8.64752C41.8389 7.54945 44.1346 7 46.6815 7C49.2285 7 51.518 7.54945 53.5504 8.64752C55.5828 9.74559 57.1831 11.2582 58.3515 13.1863C59.5202 15.1135 60.1042 17.2806 60.1042 19.687C60.1042 22.0933 59.5202 24.2605 58.3515 26.1877C57.1831 28.1149 55.5828 29.6283 53.5504 30.7256C51.518 31.8236 49.2278 32.3731 46.6815 32.3731C44.1353 32.3731 41.8389 31.8245 39.795 30.7256ZM50.6064 26.5377C51.7748 25.8716 52.6914 24.9431 53.3578 23.7516C54.0238 22.56 54.3565 21.2054 54.3565 19.6861C54.3565 18.1669 54.0238 16.8123 53.3578 15.6207C52.6914 14.4291 51.7748 13.5007 50.6064 12.8346C49.438 12.1685 48.1296 11.8358 46.6815 11.8358C45.2335 11.8358 43.9244 12.1685 42.7566 12.8346C41.5882 13.5007 40.6713 14.4291 40.0052 15.6207C39.3391 16.8123 39.0064 18.1677 39.0064 19.6861C39.0064 21.2046 39.3391 22.56 40.0052 23.7516C40.6713 24.9431 41.5874 25.8716 42.7566 26.5377C43.9244 27.2038 45.2324 27.5365 46.6815 27.5365C48.1303 27.5365 49.438 27.2038 50.6064 26.5377Z" fill="#F82C17"/>
<path d="M68.4321 31.5837C66.6217 31.0582 65.1669 30.3748 64.0687 29.5332L65.9962 25.2576C67.0478 26.0288 68.2975 26.6478 69.7463 27.1153C71.1943 27.5828 72.6434 27.8162 74.0922 27.8162C75.7042 27.8162 76.8959 27.577 77.6672 27.0979C78.4384 26.6196 78.8237 25.9825 78.8237 25.1881C78.8237 24.6047 78.5964 24.119 78.1405 23.7334C77.6854 23.3478 77.1003 23.0383 76.3878 22.8049C75.6745 22.5716 74.7113 22.3142 73.4963 22.0337C71.6272 21.5902 70.0972 21.1458 68.9055 20.7023C67.7138 20.2588 66.6919 19.5455 65.839 18.5649C64.9857 17.5835 64.5596 16.2752 64.5596 14.6402C64.5596 13.2152 64.9452 11.9244 65.7165 10.7675C66.4874 9.61071 67.6494 8.69468 69.2034 8.01615C70.7567 7.33844 72.6556 7 74.8982 7C76.463 7 77.9941 7.18701 79.4894 7.56103C80.9843 7.93506 82.2927 8.47209 83.4139 9.17297L81.6615 13.4833C79.3949 12.1991 77.1283 11.5561 74.8627 11.5561C73.274 11.5561 72.0995 11.8135 71.3407 12.3273C70.5813 12.8412 70.2021 13.5189 70.2021 14.3596C70.2021 15.2004 70.64 15.8259 71.5162 16.2347C72.3928 16.6435 73.7298 17.0465 75.5288 17.4437C77.3982 17.888 78.9283 18.3315 80.1196 18.7751C81.3113 19.2194 82.3332 19.9203 83.1865 20.8777C84.0387 21.8359 84.4659 23.1326 84.4659 24.7677C84.4659 26.1695 84.0745 27.4488 83.2914 28.6056C82.5087 29.7624 81.3345 30.6793 79.7698 31.357C78.2043 32.0347 76.3 32.3731 74.0574 32.3731C72.1178 32.3731 70.2429 32.11 68.4332 31.5845L68.4321 31.5837Z" fill="#F82C17"/>
<path d="M108.132 19.7597L95.1323 25.9079C95.8703 26.862 96.8209 27.4413 97.9861 27.6457C99.1513 27.8509 100.383 27.6457 101.682 27.0308C102.577 26.608 103.307 26.0999 103.873 25.5066C104.439 24.9133 104.884 24.1876 105.208 23.3312L109.22 24.9522C108.477 27.5704 106.552 29.6142 103.443 31.0847C101.505 32.0015 99.6114 32.4343 97.7637 32.383C95.9157 32.3325 94.269 31.8269 92.8259 30.8679C91.3818 29.9088 90.2575 28.5782 89.4522 26.8744C88.6569 25.193 88.3386 23.4867 88.4972 21.7565C88.6562 20.027 89.2545 18.454 90.2922 17.0381C91.3288 15.6231 92.7099 14.5069 94.4355 13.691C96.117 12.8958 97.8117 12.5375 99.5162 12.6169C101.221 12.6963 102.782 13.2284 104.199 14.2131C105.616 15.1978 106.747 16.5847 107.594 18.3729C107.624 18.4366 107.804 18.8992 108.132 19.7597ZM93.8604 19.7482C93.396 20.7494 93.3405 21.8442 93.6939 23.0316L102.158 19.0283C101.474 18.0229 100.596 17.3766 99.5219 17.0894C98.4487 16.8023 97.3573 16.9206 96.2502 17.4444C95.1215 17.9782 94.3245 18.7461 93.8604 19.7473V19.7482Z" fill="#F82C17"/>
<path d="M12.3826 40.3574L12.0038 41.5608H12.962L12.7986 42.3704H11.7438L11.3649 43.5591H10.5033L10.8821 42.3704H9.81246L9.43363 43.5591H8.57939L8.95823 42.3704H8L8.15599 41.5608H9.21821L9.60448 40.3574H8.64625L8.80967 39.5477H9.86446L10.2433 38.3593H11.0975L10.7187 39.5477H11.7883L12.1672 38.3593H13.0214L12.6426 39.5477H13.6082L13.4522 40.3574H12.3826ZM11.5284 40.3574H10.4587L10.0724 41.5608H11.1421L11.5284 40.3574ZM17.2683 42.4447H14.8467L14.1707 43.5591H12.8857L16.2506 38.3593H17.4391L18.7168 43.5591H17.5134L17.2683 42.4447ZM17.0677 41.531L16.6294 39.5255L15.4038 41.531H17.0677ZM22.2201 39.5032C22.532 39.5032 22.8193 39.575 23.0817 39.7186C23.3491 39.8622 23.5596 40.0702 23.7131 40.3425C23.8716 40.6099 23.9508 40.9269 23.9508 41.2934C23.9508 41.7341 23.8518 42.1327 23.6537 42.4893C23.4605 42.8408 23.1956 43.1183 22.8589 43.3213C22.5221 43.5193 22.1482 43.6185 21.7372 43.6185C21.1281 43.6185 20.6973 43.4201 20.4447 43.0241L20.051 44.9999H18.8922L19.9767 39.5626H21.0761L20.9944 39.9563C21.3262 39.6542 21.7347 39.5032 22.2201 39.5032ZM21.6035 42.6601C21.8313 42.6601 22.0343 42.6057 22.2126 42.4967C22.3909 42.3828 22.5295 42.2268 22.6286 42.0287C22.7276 41.8306 22.7771 41.6028 22.7771 41.3454C22.7771 41.073 22.6954 40.8576 22.532 40.6991C22.3736 40.5406 22.1507 40.4614 21.8635 40.4614C21.6407 40.4614 21.4401 40.5184 21.2618 40.6323C21.0835 40.7412 20.9449 40.8947 20.8458 41.0928C20.7468 41.2909 20.6973 41.5187 20.6973 41.7762C20.6973 42.0485 20.7765 42.264 20.935 42.4224C21.0935 42.5809 21.3163 42.6601 21.6035 42.6601ZM25.4099 38.0473H26.5687L25.4693 43.5591H24.3105L25.4099 38.0473ZM27.3396 39.5626H28.4909L27.6961 43.5591H26.5448L27.3396 39.5626ZM28.1121 39.0055C27.914 39.0055 27.7506 38.9485 27.6219 38.8346C27.498 38.7158 27.4362 38.5722 27.4362 38.4038C27.4362 38.2057 27.5055 38.0423 27.6441 37.9136C27.7877 37.7799 27.9734 37.713 28.2013 37.713C28.4043 37.713 28.5677 37.7699 28.6915 37.8838C28.8202 37.9928 28.8846 38.129 28.8846 38.2924C28.8846 38.5053 28.8128 38.6787 28.6692 38.8124C28.5256 38.9411 28.3399 39.0055 28.1121 39.0055ZM31.7504 41.3008L33.1246 43.5591H31.7801L30.8294 42.0065L30.1237 42.5933L29.9306 43.5591H28.7718L29.8711 38.0473H31.0299L30.4134 41.1299L32.3298 39.5626H33.8377L31.7504 41.3008ZM38.2359 39.5626L37.4411 43.5591H36.3417L36.416 43.1652C36.0842 43.4674 35.6756 43.6185 35.1903 43.6185C34.8784 43.6185 34.5912 43.5465 34.3287 43.4029C34.0662 43.2594 33.8558 43.0538 33.6973 42.7864C33.5438 42.514 33.467 42.1946 33.467 41.8282C33.467 41.3874 33.5636 40.9913 33.7567 40.6397C33.9548 40.2831 34.2222 40.0058 34.559 39.8077C34.8957 39.6047 35.2671 39.5032 35.6732 39.5032C36.2872 39.5032 36.7205 39.7037 36.9731 40.1049L37.0771 39.5626H38.2359ZM35.5469 42.6601C35.7747 42.6601 35.9777 42.6057 36.156 42.4967C36.3343 42.3828 36.4729 42.2268 36.572 42.0287C36.671 41.8306 36.7205 41.6028 36.7205 41.3454C36.7205 41.073 36.6388 40.8576 36.4754 40.6991C36.3169 40.5406 36.0941 40.4614 35.8069 40.4614C35.5791 40.4614 35.376 40.5184 35.1978 40.6323C35.0195 40.7412 34.8808 40.8947 34.7818 41.0928C34.6827 41.2909 34.6332 41.5187 34.6332 41.7762C34.6332 42.0485 34.7125 42.264 34.8709 42.4224C35.0344 42.5809 35.2597 42.6601 35.5469 42.6601ZM39.9698 43.6185C39.6232 43.6185 39.2939 43.5813 38.9819 43.5068C38.6749 43.4276 38.4347 43.3263 38.2614 43.2024L38.707 42.363C38.8804 42.4769 39.0908 42.5685 39.3384 42.6378C39.591 42.7072 39.8436 42.7418 40.0961 42.7418C40.3586 42.7418 40.5542 42.7096 40.6829 42.6453C40.8117 42.5759 40.8761 42.4794 40.8761 42.3556C40.8761 42.2565 40.8191 42.1847 40.7052 42.1402C40.5913 42.0956 40.4081 42.0485 40.1555 41.999C39.8683 41.9446 39.6306 41.8851 39.4424 41.8207C39.2592 41.7563 39.0983 41.6524 38.9596 41.5088C38.8259 41.3602 38.759 41.1596 38.759 40.9071C38.759 40.4664 38.9423 40.1222 39.3087 39.8746C39.6801 39.627 40.1654 39.5032 40.7646 39.5032C41.042 39.5032 41.3118 39.5329 41.5743 39.5923C41.8368 39.6518 42.0596 39.7334 42.2428 39.8374L41.8269 40.6842C41.5 40.4812 41.1063 40.3797 40.6458 40.3797C40.3932 40.3797 40.2001 40.4168 40.0664 40.4911C39.9376 40.5654 39.8732 40.6595 39.8732 40.7734C39.8732 40.8774 39.9302 40.9541 40.0441 41.0036C40.158 41.0482 40.3487 41.0977 40.6161 41.1522C40.8983 41.2067 41.1286 41.2661 41.3069 41.3305C41.4901 41.3899 41.6486 41.4914 41.7823 41.635C41.916 41.7787 41.9828 41.9743 41.9828 42.2218C41.9828 42.6675 41.7947 43.0116 41.4183 43.2543C41.0469 43.4971 40.5641 43.6185 39.9698 43.6185ZM43.2549 39.5626H44.4062L43.6114 43.5591H42.4601L43.2549 39.5626ZM44.0273 39.0055C43.8293 39.0055 43.6659 38.9485 43.5372 38.8346C43.4134 38.7158 43.3515 38.5722 43.3515 38.4038C43.3515 38.2057 43.4208 38.0423 43.5595 37.9136C43.7031 37.7799 43.8887 37.713 44.1165 37.713C44.3195 37.713 44.4831 37.7699 44.6067 37.8838C44.7356 37.9928 44.8 38.129 44.8 38.2924C44.8 38.5053 44.7281 38.6787 44.5845 38.8124C44.4409 38.9411 44.2554 39.0055 44.0273 39.0055ZM47.9407 40.766L49.7457 43.5591H48.3936L47.0566 41.5236L46.2173 42.2664L45.9573 43.5591H44.7614L45.8012 38.3593H46.9972L46.522 40.7437L49.2183 38.3593H50.6742L47.9407 40.766ZM54.8694 39.5626L54.0745 43.5591H52.9752L53.0496 43.1652C52.7177 43.4674 52.3092 43.6185 51.824 43.6185C51.5117 43.6185 51.2246 43.5465 50.9621 43.4029C50.6996 43.2594 50.4891 43.0538 50.3308 42.7864C50.1772 42.514 50.1006 42.1946 50.1006 41.8282C50.1006 41.3874 50.1972 40.9913 50.3902 40.6397C50.5883 40.2831 50.8557 40.0058 51.1923 39.8077C51.5293 39.6047 51.9006 39.5032 52.3066 39.5032C52.9207 39.5032 53.354 39.7037 53.6064 40.1049L53.7106 39.5626H54.8694ZM52.1802 42.6601C52.4083 42.6601 52.6114 42.6057 52.7893 42.4967C52.9676 42.3828 53.1066 42.2268 53.2054 42.0287C53.3046 41.8306 53.354 41.6028 53.354 41.3454C53.354 41.073 53.2724 40.8576 53.1087 40.6991C52.9505 40.5406 52.7277 40.4614 52.4402 40.4614C52.2125 40.4614 52.0094 40.5184 51.8311 40.6323C51.6528 40.7412 51.5142 40.8947 51.4154 41.0928C51.3162 41.2909 51.2668 41.5187 51.2668 41.7762C51.2668 42.0485 51.3459 42.264 51.5046 42.4224C51.6678 42.5809 51.8931 42.6601 52.1802 42.6601ZM56.6032 43.6185C56.2565 43.6185 55.9275 43.5813 55.6152 43.5068C55.3084 43.4276 55.0681 43.3263 54.8948 43.2024L55.3406 42.363C55.5139 42.4769 55.7244 42.5685 55.9719 42.6378C56.2243 42.7072 56.4771 42.7418 56.7296 42.7418C56.992 42.7418 57.1875 42.7096 57.3164 42.6453C57.445 42.5759 57.5094 42.4794 57.5094 42.3556C57.5094 42.2565 57.4525 42.1847 57.3386 42.1402C57.2248 42.0956 57.0414 42.0485 56.789 41.999C56.5018 41.9446 56.2641 41.8851 56.0761 41.8207C55.8927 41.7563 55.7316 41.6524 55.593 41.5088C55.4595 41.3602 55.3925 41.1596 55.3925 40.9071C55.3925 40.4664 55.5758 40.1222 55.9422 39.8746C56.3135 39.627 56.799 39.5032 57.3981 39.5032C57.6756 39.5032 57.9452 39.5329 58.2077 39.5923C58.4701 39.6518 58.6932 39.7334 58.8762 39.8374L58.4605 40.6842C58.1336 40.4812 57.7397 40.3797 57.2792 40.3797C57.0268 40.3797 56.8337 40.4168 56.6998 40.4911C56.5713 40.5654 56.5068 40.6595 56.5068 40.7734C56.5068 40.8774 56.5638 40.9541 56.6776 41.0036C56.7915 41.0482 56.982 41.0977 57.2495 41.1522C57.532 41.2067 57.7622 41.2661 57.9402 41.3305C58.1235 41.3899 58.2822 41.4914 58.4157 41.635C58.5496 41.7787 58.6162 41.9743 58.6162 42.2218C58.6162 42.6675 58.4282 43.0116 58.0519 43.2543C57.6802 43.4971 57.1976 43.6185 56.6032 43.6185ZM59.8885 39.5626H61.0397L60.2451 43.5591H59.0935L59.8885 39.5626ZM60.6608 39.0055C60.4628 39.0055 60.2995 38.9485 60.1706 38.8346C60.0467 38.7158 59.9848 38.5722 59.9848 38.4038C59.9848 38.2057 60.0542 38.0423 60.1928 37.9136C60.3364 37.7799 60.5222 37.713 60.75 37.713C60.953 37.713 61.1166 37.7699 61.2402 37.8838C61.3691 37.9928 61.4335 38.129 61.4335 38.2924C61.4335 38.5053 61.3616 38.6787 61.218 38.8124C61.0744 38.9411 60.8886 39.0055 60.6608 39.0055ZM63.1183 40.038C63.2916 39.8498 63.4996 39.7136 63.742 39.6294C63.9898 39.5453 64.2795 39.5032 64.6111 39.5032L64.4034 40.5728C64.2645 40.5629 64.1753 40.558 64.1359 40.558C63.7843 40.558 63.5021 40.6446 63.2891 40.818C63.081 40.9913 62.94 41.2612 62.8655 41.6276L62.4795 43.5591H61.3204L62.1153 39.5626H63.2146L63.1183 40.038ZM70.352 38.3593L69.3118 43.5591H68.3239L66.3853 40.3054L65.7315 43.5591H64.543L65.5829 38.3593H66.5783L68.5173 41.6202L69.1632 38.3593H70.352ZM72.5553 43.6185C72.1542 43.6185 71.8001 43.544 71.4929 43.3954C71.191 43.2468 70.9557 43.0388 70.7875 42.7716C70.6238 42.4992 70.5422 42.1847 70.5422 41.8282C70.5422 41.3874 70.646 40.9913 70.8541 40.6397C71.0621 40.2881 71.3493 40.0108 71.7159 39.8077C72.0822 39.6047 72.4958 39.5032 72.9563 39.5032C73.3624 39.5032 73.7165 39.5775 74.0187 39.726C74.3205 39.8746 74.5533 40.0851 74.7169 40.3574C74.8852 40.6248 74.9694 40.9368 74.9694 41.2934C74.9694 41.7341 74.8652 42.1302 74.6575 42.4818C74.4545 42.8336 74.1669 43.1108 73.7956 43.3138C73.4293 43.5168 73.0157 43.6185 72.5553 43.6185ZM72.6294 42.6601C72.8525 42.6601 73.053 42.6057 73.2313 42.4967C73.4093 42.3828 73.5482 42.2268 73.647 42.0287C73.7462 41.8306 73.7956 41.6028 73.7956 41.3454C73.7956 41.073 73.7165 40.8576 73.5579 40.6991C73.3996 40.5406 73.1765 40.4614 72.8893 40.4614C72.6616 40.4614 72.4586 40.5184 72.2803 40.6323C72.1019 40.7412 71.9634 40.8947 71.8645 41.0928C71.7653 41.2909 71.7159 41.5187 71.7159 41.7762C71.7159 42.0485 71.7951 42.264 71.9537 42.4224C72.117 42.5809 72.3422 42.6601 72.6294 42.6601ZM81.1368 39.5032C81.5726 39.5032 81.9192 39.622 82.1767 39.8597C82.4345 40.0925 82.563 40.4243 82.563 40.8551C82.563 41.0136 82.5458 41.177 82.5111 41.3454L82.0728 43.5591H80.9141L81.3373 41.4271C81.3574 41.328 81.3671 41.2265 81.3671 41.1225C81.3671 40.9195 81.3126 40.766 81.2038 40.6619C81.0996 40.558 80.9438 40.506 80.7358 40.506C80.1761 40.506 79.827 40.8402 79.6884 41.5088L79.2798 43.5591H78.1211L78.5444 41.4271C78.5644 41.328 78.5741 41.229 78.5741 41.1299C78.5741 40.9269 78.5197 40.7734 78.4108 40.6694C78.3066 40.5604 78.1508 40.506 77.9428 40.506C77.3831 40.506 77.0315 40.8452 76.8879 41.5236L76.4869 43.5591H75.3282L76.1227 39.5626H77.2224L77.1332 39.9786C77.4798 39.6616 77.898 39.5032 78.3886 39.5032C78.6658 39.5032 78.911 39.5601 79.1237 39.674C79.3418 39.7829 79.5051 39.9439 79.6143 40.1568C79.8073 39.9439 80.0325 39.7829 80.29 39.674C80.5474 39.5601 80.8299 39.5032 81.1368 39.5032ZM85.2496 43.6185C84.8486 43.6185 84.4945 43.544 84.1876 43.3954C83.8854 43.2468 83.6501 43.0388 83.4818 42.7716C83.3185 42.4992 83.2365 42.1847 83.2365 41.8282C83.2365 41.3874 83.3407 40.9913 83.5488 40.6397C83.7568 40.2881 84.044 40.0108 84.4103 39.8077C84.777 39.6047 85.1902 39.5032 85.651 39.5032C86.0571 39.5032 86.4109 39.5775 86.7131 39.726C87.0153 39.8746 87.248 40.0851 87.4113 40.3574C87.5796 40.6248 87.6637 40.9368 87.6637 41.2934C87.6637 41.7341 87.5599 42.1302 87.3519 42.4818C87.1488 42.8336 86.8617 43.1108 86.4903 43.3138C86.1237 43.5168 85.7105 43.6185 85.2496 43.6185ZM85.3241 42.6601C85.5468 42.6601 85.7473 42.6057 85.9257 42.4967C86.104 42.3828 86.2426 42.2268 86.3417 42.0287C86.4406 41.8306 86.4903 41.6028 86.4903 41.3454C86.4903 41.073 86.4109 40.8576 86.2526 40.6991C86.094 40.5406 85.8712 40.4614 85.5841 40.4614C85.3563 40.4614 85.1533 40.5184 84.975 40.6323C84.7967 40.7412 84.6581 40.8947 84.5589 41.0928C84.4597 41.2909 84.4103 41.5187 84.4103 41.7762C84.4103 42.0485 84.4894 42.264 84.6481 42.4224C84.8113 42.5809 85.0369 42.6601 85.3241 42.6601ZM89.8204 40.038C89.9937 39.8498 90.2014 39.7136 90.4442 39.6294C90.692 39.5453 90.9816 39.5032 91.3132 39.5032L91.1052 40.5728C90.9666 40.5629 90.8774 40.558 90.8381 40.558C90.4864 40.558 90.2039 40.6446 89.9912 40.818C89.7832 40.9913 89.6421 41.2612 89.5676 41.6276L89.1813 43.5591H88.0225L88.8175 39.5626H89.9167L89.8204 40.038ZM93.0502 43.6482C92.6395 43.6482 92.2456 43.5934 91.8693 43.4846C91.493 43.3757 91.1908 43.2371 90.963 43.0685L91.4532 42.1402C91.691 42.3135 91.9585 42.4472 92.2557 42.5413C92.5529 42.6353 92.8572 42.6824 93.1691 42.6824C93.501 42.6824 93.7635 42.6279 93.9565 42.519C94.1499 42.41 94.2462 42.2615 94.2462 42.0733C94.2462 41.9198 94.1696 41.8034 94.0159 41.7242C93.8627 41.64 93.6174 41.5509 93.2808 41.4568C92.9439 41.3577 92.6692 41.2636 92.4562 41.1745C92.2431 41.0804 92.0576 40.9417 91.899 40.7585C91.7454 40.5753 91.6688 40.3327 91.6688 40.0306C91.6688 39.679 91.7655 39.3695 91.9585 39.102C92.1565 38.8346 92.434 38.6291 92.7903 38.4855C93.1519 38.3419 93.5705 38.2701 94.0457 38.2701C94.3973 38.2701 94.7292 38.3097 95.0411 38.3889C95.353 38.4632 95.6205 38.5722 95.8432 38.7158L95.3902 39.6369C95.1972 39.5032 94.9792 39.4041 94.7367 39.3398C94.494 39.2704 94.2415 39.2357 93.9791 39.2357C93.6371 39.2357 93.3675 39.2952 93.1691 39.414C92.9711 39.5329 92.8723 39.6864 92.8723 39.8746C92.8723 39.9885 92.9142 40.0851 92.9983 40.1643C93.0825 40.2386 93.1891 40.3005 93.3177 40.35C93.4466 40.3945 93.6274 40.449 93.8602 40.5134C94.1917 40.6025 94.4642 40.6941 94.6773 40.7882C94.89 40.8774 95.0708 41.0111 95.2194 41.1893C95.373 41.3627 95.4497 41.593 95.4497 41.8802C95.4497 42.2367 95.3505 42.5487 95.1525 42.8161C94.9544 43.0785 94.6748 43.2841 94.3131 43.4327C93.9515 43.5762 93.5308 43.6482 93.0502 43.6482ZM100.751 39.5626L99.9563 43.5591H98.8571L98.9312 43.1652C98.5993 43.4674 98.1907 43.6185 97.7055 43.6185C97.3936 43.6185 97.1065 43.5465 96.844 43.4029C96.5815 43.2594 96.371 43.0538 96.2124 42.7864C96.0591 42.514 95.9821 42.1946 95.9821 41.8282C95.9821 41.3874 96.0788 40.9913 96.2718 40.6397C96.4702 40.2831 96.7373 40.0058 97.0742 39.8077C97.4108 39.6047 97.7821 39.5032 98.1882 39.5032C98.8023 39.5032 99.2359 39.7037 99.4884 40.1049L99.5922 39.5626H100.751ZM98.0621 42.6601C98.2899 42.6601 98.4929 42.6057 98.6712 42.4967C98.8495 42.3828 98.9881 42.2268 99.0873 42.0287C99.1861 41.8306 99.2359 41.6028 99.2359 41.3454C99.2359 41.073 99.1539 40.8576 98.9906 40.6991C98.832 40.5406 98.6093 40.4614 98.3221 40.4614C98.0944 40.4614 97.8913 40.5184 97.713 40.6323C97.5347 40.7412 97.3961 40.8947 97.297 41.0928C97.1981 41.2909 97.1484 41.5187 97.1484 41.7762C97.1484 42.0485 97.2275 42.264 97.3861 42.4224C97.5494 42.5809 97.775 42.6601 98.0621 42.6601ZM102.604 42.1476C102.594 42.1872 102.589 42.2417 102.589 42.311C102.589 42.5685 102.73 42.6973 103.012 42.6973C103.166 42.6973 103.322 42.6502 103.48 42.5561L103.651 43.3807C103.394 43.539 103.062 43.6185 102.656 43.6185C102.28 43.6185 101.977 43.5193 101.75 43.3213C101.522 43.1233 101.408 42.8508 101.408 42.5041C101.408 42.4051 101.42 42.2887 101.445 42.155L101.765 40.5431H101.148L101.326 39.6518H101.943L102.136 38.6787H103.295L103.102 39.6518H104.097L103.919 40.5431H102.923L102.604 42.1476ZM109.078 39.5626L108.283 43.5591H107.184L107.266 43.1279C107.092 43.2916 106.894 43.4155 106.671 43.4996C106.449 43.5788 106.213 43.6185 105.966 43.6185C105.53 43.6185 105.181 43.4996 104.918 43.2619C104.661 43.0241 104.532 42.6898 104.532 42.259C104.532 42.0956 104.549 41.9346 104.584 41.7762L105.022 39.5626H106.181L105.757 41.7019C105.738 41.796 105.728 41.8926 105.728 41.9916C105.728 42.4076 105.951 42.6155 106.396 42.6155C106.688 42.6155 106.929 42.5314 107.117 42.363C107.31 42.1897 107.441 41.9322 107.511 41.5905L107.919 39.5626H109.078Z" fill="#F82C17"/>
</svg>
